<?xml version="1.0" encoding="utf-8"?>
<!-- Generator: Adobe Illustrator 23.0.3, SVG Export Plug-In . SVG Version: 6.00 Build 0)  -->
<svg version="1.1" id="Layer_1" xmlns="http://www.w3.org/2000/svg" xmlns:xlink="http://www.w3.org/1999/xlink" x="0px" y="0px"
	 viewBox="0 0 131.8 131.8" style="enable-background:new 0 0 131.8 131.8;" xml:space="preserve">
<g>
	<g>
		<path d="M114.3,101.8H99.5V77.1h3c1.1,0,2-0.9,2-2c0-1.1-0.9-2-2-2H75.4V57.5h3.1c1.1,0,2-0.9,2-2c0-1.1-0.9-2-2-2H21.5
			c-1.1,0-2,0.9-2,2c0,1.1,0.9,2,2,2H24v44.3h-6.6c-1.1,0-2,0.9-2,2c0,1.1,0.9,2,2,2h96.9c1.1,0,2-0.9,2-2
			C116.3,102.7,115.4,101.8,114.3,101.8z M49.7,101.8H28V57.5h43.4v15.6H43.3c-1.1,0-2,0.9-2,2c0,1.1,0.9,2,2,2h6.4V101.8z
			 M65.8,101.7h-4.6V86.3h4.6V101.7z M95.5,101.8H69.8V84.3c0-1.1-0.9-2-2-2h-8.6c-1.1,0-2,0.9-2,2v17.5h-3.4V77.1h41.8V101.8z"/>
	</g>
	<g>
		<path d="M66.7,71.4h-35c-1.1,0-2-0.9-2-2v-8.3c0-1.1,0.9-2,2-2h35c1.1,0,2,0.9,2,2v8.3C68.7,70.5,67.8,71.4,66.7,71.4z M33.7,67.4
			h31v-4.3h-31V67.4z"/>
	</g>
	<g>
		<path d="M38.6,96.3h-6.9c-1.1,0-2-0.9-2-2V84.3c0-1.1,0.9-2,2-2h6.9c1.1,0,2,0.9,2,2v10.1C40.6,95.4,39.7,96.3,38.6,96.3z
			 M33.7,92.3h2.9v-6.1h-2.9V92.3z"/>
	</g>
	<g>
		<path d="M91.4,96.3H73.9c-1.1,0-2-0.9-2-2V84.3c0-1.1,0.9-2,2-2h17.5c1.1,0,2,0.9,2,2v10.1C93.4,95.4,92.5,96.3,91.4,96.3z
			 M75.9,92.3h13.5v-6.1H75.9V92.3z"/>
	</g>
	<g>
		<path d="M104.8,35.7h-2.2c-0.2-1-0.6-1.9-1.2-2.8l1.5-1.5c0.6-0.6,0.6-1.5,0-2.1c-0.6-0.6-1.5-0.6-2.1,0l-1.5,1.5
			c-0.9-0.6-1.9-1.1-3-1.3v-2c0-0.8-0.7-1.5-1.5-1.5s-1.5,0.7-1.5,1.5v2c-1.1,0.2-2.2,0.6-3.1,1.3l-1.4-1.4c-0.6-0.6-1.5-0.6-2.1,0
			c-0.6,0.6-0.6,1.5,0,2.1l1.3,1.3c-0.6,0.9-1.1,1.9-1.3,2.9h-1.9c-0.8,0-1.5,0.7-1.5,1.5c0,0.8,0.7,1.5,1.5,1.5h1.8
			c0.2,1.3,0.7,2.4,1.4,3.4l-1.3,1.3c-0.6,0.6-0.6,1.5,0,2.1c0.3,0.3,0.7,0.4,1.1,0.4c0.4,0,0.8-0.1,1.1-0.4l1.3-1.3
			c0.9,0.6,2,1.1,3.2,1.3v1.9c0,0.8,0.7,1.5,1.5,1.5s1.5-0.7,1.5-1.5v-2c1.1-0.2,2.2-0.7,3.1-1.3l1.4,1.5c0.3,0.3,0.7,0.4,1.1,0.4
			c0.4,0,0.8-0.1,1.1-0.4c0.6-0.6,0.6-1.5,0-2.1l-1.5-1.5c0.6-1,1.1-2.1,1.3-3.3h2.1c0.8,0,1.5-0.7,1.5-1.5
			C106.3,36.4,105.6,35.7,104.8,35.7z M94.7,42.7c-2.8,0-5.1-2.3-5.1-5.1c0-2.8,2.3-5.1,5.1-5.1c2.8,0,5.1,2.3,5.1,5.1
			C99.8,40.3,97.5,42.7,94.7,42.7z"/>
	</g>
</g>
</svg>
