<?xml version="1.0" encoding="utf-8"?>
<!-- Generator: Adobe Illustrator 23.0.3, SVG Export Plug-In . SVG Version: 6.00 Build 0)  -->
<svg version="1.1" id="Layer_1" xmlns="http://www.w3.org/2000/svg" xmlns:xlink="http://www.w3.org/1999/xlink" x="0px" y="0px"
	 viewBox="0 0 131.8 131.8" style="enable-background:new 0 0 131.8 131.8;" xml:space="preserve">
<g>
	<path d="M93.5,61.1H50.2v-2.7c0-2.2,0.8-4.2,2.3-5.5c1.5-1.5,3.4-2.3,5.5-2.3h0.6V52c0,1.2,0.8,2,2,2c1.2,0,2-0.8,2-2v-3.5
		c0-1.2-0.8-2-2-2H58c-3.3,0-6.2,1.2-8.5,3.5c-2.2,2.2-3.5,5.3-3.5,8.5v2.5h-7.7c-1.2,0-2,0.8-2,2v43c0,1.2,0.8,2,2,2h55.2
		c1.2,0,2-0.8,2-2v-43C95.5,62,94.6,61.1,93.5,61.1z M63.8,104H40.3V65.1h23.5V104z M91.4,104H67.9V88.6h23.5V104z M91.4,84.5H67.9
		v-7.7h23.5V84.5z M91.4,72.8H67.9v-7.7h23.5V72.8z"/>
	<path d="M84.8,96.5c0,1.2-0.8,2-2,2h-6.4c-1,0-2-1-2-2c0-1.2,0.8-2,2-2h6.4C84,94.5,84.8,95.3,84.8,96.5z"/>
	<path d="M60.8,79.3V91c0,1.2-0.8,2-2,2c-1.3,0-2-1.1-2-2V79.3c0-1.2,0.8-2,2-2S60.8,78.1,60.8,79.3z"/>
	<path d="M93.5,23.6H38.3c-1.2,0-2,0.8-2,2V40c0,1.2,0.8,2,2,2h55.2c1.2,0,2-0.8,2-2V25.7C95.5,24.5,94.6,23.6,93.5,23.6z
		 M67.9,37.9V27.7h23.5v10.2H67.9z M63.8,37.9H40.3V27.7h23.5V37.9z"/>
</g>
</svg>
