<?xml version="1.0" encoding="utf-8"?>
<!-- Generator: Adobe Illustrator 23.0.3, SVG Export Plug-In . SVG Version: 6.00 Build 0)  -->
<svg version="1.1" id="Layer_1" xmlns="http://www.w3.org/2000/svg" xmlns:xlink="http://www.w3.org/1999/xlink" x="0px" y="0px"
	 viewBox="0 0 131.75 131.75" style="enable-background:new 0 0 131.75 131.75;" xml:space="preserve">
<g>
	<path d="M102.31,73.6l-0.09-0.17L93.7,47.28l-0.12-0.18c-3.04-8.09-10.39-13.65-16.74-12.65c-0.54,0.1-1.04,0.41-1.38,0.85
		c-0.34,0.45-0.47,0.98-0.37,1.5c0.21,1.13,1.25,1.9,2.38,1.76c3.72-0.64,9.65,3.28,12.2,9.91l7.22,22.29H80.57
		c-3.19,0-6.14,1.92-7.5,4.89l-0.13,0.29H58.81l-0.13-0.29c-1.36-2.97-4.3-4.89-7.5-4.89H34.94l0.13-0.65l7-21.61
		c2.55-6.75,8.39-10.57,12.23-9.93c1.14,0.14,2.23-0.65,2.36-1.73c0.11-0.57-0.03-1.14-0.35-1.58s-0.82-0.73-1.37-0.79
		c-6.36-0.99-13.72,4.55-16.76,12.64l-8.73,26.5c-1.3,1.56-1.96,3.34-1.96,5.3v3.46c0,8.3,6.75,15.06,15.06,15.06h1.73
		c8.3,0,15.06-6.75,15.06-15.06v-2.23h13.1v2.23c0,8.3,6.75,15.06,15.06,15.06h1.73c8.3,0,15.06-6.75,15.06-15.06V78.9
		C104.27,76.95,103.61,75.16,102.31,73.6z M55.14,82.36c0,5.99-4.88,10.87-10.87,10.87h-1.73c-5.99,0-10.87-4.88-10.87-10.87V78.9
		c0-2.18,1.78-3.96,3.96-3.96h15.56c2.18,0,3.96,1.78,3.96,3.96V82.36z M100.08,82.36c0,5.99-4.88,10.87-10.87,10.87h-1.73
		c-5.99,0-10.87-4.88-10.87-10.87V78.9c0-2.18,1.78-3.96,3.96-3.96h15.56c2.18,0,3.96,1.78,3.96,3.96V82.36z"/>
</g>
</svg>
