<?xml version="1.0" encoding="utf-8"?>
<!-- Generator: Adobe Illustrator 23.0.3, SVG Export Plug-In . SVG Version: 6.00 Build 0)  -->
<svg version="1.1" id="Layer_1" xmlns="http://www.w3.org/2000/svg" xmlns:xlink="http://www.w3.org/1999/xlink" x="0px" y="0px"
	 viewBox="0 0 131.8 131.8" style="enable-background:new 0 0 131.8 131.8;" xml:space="preserve">
<g>
	<path d="M91.8,47.9c0.2,0,0.4,0,0.6,0c2.6,0,5.2-0.1,7.8,0c2.6,0.1,5,0.9,6.9,2.8c1.3,1.4,2,3,2.4,4.9c0.5,2.4,0.2,4.9-0.2,7.3
		c-0.5,3.1-1.5,6.1-3.1,8.9c-2,3.5-4.7,6.3-8.3,8.1c-1.8,0.9-3.6,1.4-5.6,1.7c-0.2,0-0.3,0.1-0.5,0.1c0,0.2,0,0.4,0,0.6
		c0,5.1,0,10.2,0,15.2c0,2.1-0.8,3.8-2.5,5.1c-1.1,0.8-2.3,1.2-3.7,1.2c-4.2,0-8.5,0-12.7,0c-11.6,0-23.2,0-34.8,0
		c-2.6,0-4.5-1.2-5.7-3.5c-0.4-0.9-0.6-1.8-0.6-2.8c0-14.4,0-28.9,0-43.3c0-8,0-15.9,0-23.9c0-0.9,0.3-1.7,1.2-2.1
		c0.4-0.2,0.8-0.2,1.2-0.2c15.1,0,51.9,0,55.3,0c0.8,0,1.6,0.3,1.9,1c0.2,0.4,0.3,0.9,0.3,1.3c0,5.7,0,11.3,0,17
		C91.8,47.5,91.8,47.7,91.8,47.9z M87.8,31.9c-17.3,0-34.6,0-51.9,0c0,0.2,0,43.8,0,65.4c0,0.2,0,0.5,0,0.7c0.1,0.4,0.3,0.8,0.5,1.1
		c0.5,0.6,1.1,0.7,1.8,0.7c15.7,0,31.4,0,47.2,0c0.1,0,0.2,0,0.3,0c0.8,0,1.5-0.4,1.8-1.2c0.2-0.4,0.2-0.8,0.2-1.2
		c0-6.2,0-12.4,0-18.6c0-9.9,0-40.8,0-46.3C87.8,32.3,87.8,32.1,87.8,31.9z M91.8,77.8c0.8-0.2,1.5-0.3,2.2-0.5
		c0.6-0.2,1.2-0.4,1.8-0.7c2.6-1.2,4.5-3,6.1-5.3c2.9-4.3,4.1-9.1,3.8-14.3c-0.1-1.4-0.6-2.7-1.7-3.7c-1.1-1-2.5-1.4-3.9-1.4
		c-2.6-0.1-5.3,0-7.9,0c-0.1,0-0.2,0-0.4,0C91.8,60.5,91.8,69.1,91.8,77.8z"/>
	<path d="M61.9,53.9c0-3,0.7-5.7,2.9-7.8c1.3-1.3,3-1.9,4.8-2.1c0.2,1.1,0.1,2.2-0.1,3.3c-0.2,1.5-0.8,3-1.8,4.2
		c-1.3,1.5-2.9,2.3-4.9,2.4c-0.2,0-0.5,0-0.7,0c0.8,0.2,1.7,0.3,2.5,0.6c1.7,0.6,2.8,1.9,3.4,3.6c0.6,1.7,1.2,3.5,1.7,5.2
		c0.6,2,1.6,3.8,2.9,5.4c1.1,1.4,2.1,2.8,2.6,4.6c1.1,4.2,0.5,8-2.7,11.2c-1.4,1.4-3.2,2.3-5.2,2.8c-2.4,0.7-4.9,0.8-7.4,0.6
		c-2.1-0.2-4.2-0.6-6.2-1.5c-3.2-1.6-5.2-4.1-5.8-7.7c-0.6-3.5,0.3-6.5,2.4-9.3c0.8-1,1.5-2,2.1-3c0.9-1.5,1.4-3.3,1.9-5
		c0.4-1.3,0.8-2.6,1.4-3.9c1-2.2,2.9-3.3,5.3-3.4C61.4,53.9,61.7,53.9,61.9,53.9z M61.9,83.9c1.2-0.1,2.5-0.2,3.7-0.5
		c1.2-0.2,2.3-0.6,3.3-1.2c1.6-1,2.6-2.3,2.9-4.2c0.3-2.2,0.1-4.3-1.4-6.1c-0.5-0.6-0.9-1.2-1.3-1.8c-1.2-1.6-2.1-3.2-2.7-5.1
		c-0.6-1.8-1.1-3.6-1.7-5.3c-0.5-1.4-1.1-1.8-2.6-1.9c-1.4,0-2.1,0.4-2.6,1.6c-0.2,0.4-0.3,0.9-0.5,1.3c-0.5,1.6-1,3.1-1.5,4.7
		c-0.8,2.4-2.2,4.4-3.8,6.4c-1.2,1.5-1.7,3.1-1.6,5.1c0.1,2.7,1.3,4.6,3.8,5.7C57.6,83.5,59.7,83.8,61.9,83.9z"/>
</g>
</svg>
