<?xml version="1.0" encoding="utf-8"?>
<!-- Generator: Adobe Illustrator 23.0.3, SVG Export Plug-In . SVG Version: 6.00 Build 0)  -->
<svg version="1.1" id="Layer_1" xmlns="http://www.w3.org/2000/svg" xmlns:xlink="http://www.w3.org/1999/xlink" x="0px" y="0px"
	 viewBox="0 0 131.75 131.75" style="enable-background:new 0 0 131.75 131.75;" xml:space="preserve">
<g>
	<path d="M114.42,58.04L85.34,29.03c-0.39-0.4-0.92-0.62-1.49-0.58c-0.51,0.02-0.96,0.23-1.24,0.58l-5.86,5.85
		c-0.77,0.78-0.77,1.95,0,2.73l1.2,1.2l-0.02,0.02c-1.71-1.3-3.67-1.97-5.83-1.97c-2.48,0-4.88,0.97-6.75,2.73l-0.24,0.24
		c-1.91-2.09-4.53-3.28-7.23-3.28c-1.41,0-2.71,0.28-3.9,0.83l0.92-0.92c0.78-0.78,0.78-1.95,0-2.73l-5.86-5.75
		c-0.39-0.39-0.91-0.62-1.49-0.58c-0.5,0.02-0.95,0.24-1.23,0.58L17.34,56.85c-0.35,0.35-0.53,0.83-0.53,1.41
		c0,0.43,0.17,0.88,0.53,1.42l5.86,5.86c0.35,0.35,0.83,0.53,1.42,0.53c0.58,0,1.06-0.18,1.41-0.53l1.2-1.2l12.69,12.69
		c-1.73,2.48-1.48,5.74,0.64,7.86c1.12,1.11,2.6,1.74,4.19,1.78c0.08,1.64,0.71,3.11,1.78,4.18c1.09,1.09,2.53,1.72,4.08,1.78
		c0.08,1.59,0.69,3,1.77,4.08c1.08,1.07,2.55,1.71,4.09,1.78c0.08,1.55,0.72,3.03,1.77,4.08c1.15,1.15,2.69,1.78,4.35,1.78
		c1.36,0,2.74-0.51,3.82-1.4c2.45,1.13,5.08,0.5,6.8-1.22c1.09-1.1,1.74-2.62,1.78-4.19c1.64-0.08,3.11-0.7,4.18-1.77
		c1.05-1.06,1.68-2.53,1.77-4.09c1.56-0.08,3.03-0.72,4.08-1.77c1.09-1.08,1.7-2.49,1.78-4.08c1.59-0.08,3-0.69,4.08-1.78
		c1.14-1.13,1.79-2.71,1.79-4.34c0-0.74-0.16-1.53-0.47-2.42l12.12-12.11l1.41,1.4c0.35,0.35,0.83,0.53,1.41,0.53
		c0.59,0,1.07-0.18,1.42-0.53l5.86-5.85c0.35-0.36,0.53-0.83,0.53-1.42C114.95,58.82,114.64,58.37,114.42,58.04z M24.62,61.4
		l-3.14-3.14l26.15-26.14l3.13,3.13L24.62,61.4z M46.53,82.16c-0.43,0.44-1.03,0.65-1.62,0.65c-0.59,0-1.19-0.21-1.62-0.65
		c-0.91-0.91-0.91-2.33,0-3.23c0.43-0.43,0.94-0.63,1.62-0.63c0.3,0,1.05,0.06,1.62,0.63c0.43,0.43,0.67,1.01,0.67,1.61
		C47.2,81.15,46.96,81.73,46.53,82.16z M52.69,87.81c-0.03,0.04-0.09,0.1-0.04,0.1h-0.16l-0.11,0.11c-0.09,0.09-0.2,0.2-0.26,0.34
		c-0.94,0.59-2.13,0.5-2.87-0.24c-0.89-0.89-0.89-2.34,0-3.23c0.43-0.43,0.94-0.62,1.62-0.62c0.3,0,1.06,0.06,1.62,0.62
		C53.31,85.71,53.38,86.95,52.69,87.81z M58.66,93.46c-0.04,0.04-0.1,0.07-0.15,0.11c-0.1,0.07-0.2,0.14-0.27,0.2
		c-0.07,0.07-0.13,0.17-0.2,0.27c-0.03,0.04-0.06,0.09-0.06,0.11c-0.9,0.62-2.05,0.55-2.88-0.18c-0.81-0.82-0.88-2.05-0.14-2.94
		c0.06-0.04,0.16-0.08,0.26-0.18c0.09-0.09,0.2-0.2,0.26-0.35c0.84-0.56,1.93-0.5,2.86,0.25C59.13,91.53,59.25,92.69,58.66,93.46z
		 M60.97,99.84c-0.79-0.79-0.91-1.94-0.31-2.71c0.03-0.04,0.09-0.08,0.15-0.11c0.1-0.07,0.2-0.14,0.26-0.21
		c0.07-0.06,0.14-0.16,0.2-0.26c0.04-0.06,0.08-0.12,0.08-0.12c0.3-0.23,0.72-0.34,1.24-0.34c0.62,0,1.22,0.23,1.61,0.62
		c0.44,0.43,0.68,1.01,0.68,1.62c0,0.6-0.24,1.18-0.66,1.6C63.3,100.75,61.84,100.72,60.97,99.84z M88.16,81.33
		c-0.82,0.81-2.07,0.89-2.96,0.14c-0.03-0.06-0.08-0.15-0.17-0.25l-11.3-11.4c-0.75-0.75-1.98-0.75-2.73,0
		c-0.78,0.78-0.78,1.95,0,2.72l11.3,11.41l0.03,0.03c0.02,0.05,0.04,0.08,0.07,0.11l0.08,0.14c0.71,0.89,0.64,2.13-0.18,2.95
		c-0.81,0.81-2.09,0.87-2.96,0.16c-0.02-0.04-0.04-0.07-0.06-0.09L67.77,75.78c-0.75-0.75-1.98-0.75-2.73,0
		c-0.37,0.37-0.58,0.86-0.58,1.36c0,0.51,0.21,0.99,0.58,1.37l11.3,11.3l0.11,0.1h0.06c0.02,0.02,0.05,0.04,0.07,0.06
		c0.68,0.91,0.62,2.12-0.14,2.97c-0.8,0.8-2.35,0.79-3.23,0l-11.3-11.3c-0.75-0.75-1.98-0.75-2.73,0C58.81,82.01,58.6,82.5,58.6,83
		c0,0.51,0.21,0.99,0.58,1.37l11.3,11.29c0.42,0.43,0.62,0.94,0.62,1.62c0,0.56-0.21,1.1-0.62,1.62c-0.51,0.51-1.23,0.74-1.89,0.63
		c0.5-2.04-0.12-4.21-1.66-5.76c-1.05-1.05-2.52-1.69-4.08-1.77c-0.09-1.56-0.73-3.03-1.78-4.09c-1.07-1.07-2.55-1.71-4.08-1.77
		c-0.08-1.59-0.69-3-1.77-4.08c-1.08-1.07-2.55-1.7-4.19-1.78c-0.08-1.64-0.71-3.11-1.78-4.19c-1.66-1.66-3.97-2.22-6.23-1.52
		L29.85,61.4l20.81-20.81l0.68,0.68c0.09,0.1,0.19,0.14,0.29,0.18c0.31,0.38,0.76,0.62,1.25,0.67c0.51,0.06,0.99-0.09,1.36-0.4
		c0.95-0.76,2.2-1.18,3.53-1.18c1.73,0,3.33,0.77,4.42,2.11L51.44,53.61c-2.34,2.34-2.34,6.23,0,8.69c1.15,1.14,2.69,1.78,4.35,1.78
		c1.65,0,3.19-0.64,4.34-1.78l6.12-6.12l21.91,21.91c0.45,0.45,0.68,1.04,0.68,1.62S88.61,80.88,88.16,81.33z M89.78,74.26
		L71.75,56.23h0.35c2.53,0,4.9-0.97,6.86-2.83c0.37-0.37,0.58-0.85,0.58-1.36c0-0.5-0.21-0.99-0.58-1.36
		c-0.78-0.78-1.95-0.78-2.72-0.01c-2.2,2.1-5.54,2.24-7.74,0.32c-0.12-0.12-0.32-0.32-0.68-0.32h-0.03c-0.24-0.1-0.4-0.1-0.6-0.1
		h-0.11c-0.2,0-0.36,0-0.6,0.1l-0.19,0.04c-0.27,0.13-0.41,0.27-0.52,0.39l-8.47,8.47c-0.8,0.8-2.35,0.8-3.24,0
		c-0.42-0.43-0.62-0.94-0.62-1.62c0-0.56,0.21-1.1,0.62-1.62l13.91-13.91c1.07-1.06,2.53-1.67,4.03-1.67c1.39,0,2.75,0.54,3.86,1.52
		c0.1,0.29,0.23,0.54,0.48,0.78c0.35,0.35,0.82,0.53,1.41,0.53c0.59,0,1.07-0.18,1.42-0.53l1.51-1.51l20.81,20.81L89.78,74.26z
		 M107.04,62.44L80.9,36.3l3.13-3.13l26.14,26.14L107.04,62.44z"/>
</g>
</svg>
