<?xml version="1.0" encoding="utf-8"?>
<!-- Generator: Adobe Illustrator 23.0.3, SVG Export Plug-In . SVG Version: 6.00 Build 0)  -->
<svg version="1.1" id="Layer_1" xmlns="http://www.w3.org/2000/svg" xmlns:xlink="http://www.w3.org/1999/xlink" x="0px" y="0px"
	 viewBox="0 0 131.75 131.75" style="enable-background:new 0 0 131.75 131.75;" xml:space="preserve">
<g>
	<g>
		<path d="M65.88,86.94c-17.02,0-30.87-13.85-30.87-30.87c0-17.02,13.85-30.87,30.87-30.87s30.87,13.85,30.87,30.87
			C96.74,73.09,82.9,86.94,65.88,86.94z M65.88,29.2c-14.81,0-26.87,12.05-26.87,26.87s12.05,26.87,26.87,26.87
			s26.87-12.05,26.87-26.87S80.69,29.2,65.88,29.2z"/>
	</g>
	<g>
		<path d="M72.56,68.31c-0.32,0-0.64-0.08-0.93-0.23l-5.75-3.02l-5.75,3.02c-0.67,0.35-1.49,0.29-2.11-0.15
			c-0.62-0.45-0.92-1.21-0.8-1.96l1.1-6.41l-4.65-4.54c-0.55-0.53-0.74-1.33-0.51-2.05c0.24-0.72,0.86-1.25,1.61-1.36l6.43-0.93
			l2.88-5.83c0.34-0.68,1.03-1.12,1.79-1.12l0,0c0.76,0,1.46,0.43,1.79,1.12l2.88,5.83l6.43,0.93c0.75,0.11,1.38,0.64,1.62,1.36
			c0.24,0.72,0.04,1.52-0.51,2.05l-4.65,4.54l1.1,6.41c0.13,0.75-0.18,1.51-0.8,1.96C73.39,68.18,72.98,68.31,72.56,68.31z
			 M65.88,60.79c0.32,0,0.64,0.08,0.93,0.23l3.1,1.63l-0.59-3.45c-0.11-0.65,0.1-1.31,0.58-1.77l2.5-2.44l-3.46-0.5
			c-0.65-0.09-1.21-0.5-1.51-1.09l-1.55-3.14l-1.55,3.14c-0.29,0.59-0.85,1-1.5,1.09l-3.46,0.5l2.5,2.44
			c0.47,0.46,0.69,1.12,0.58,1.77l-0.59,3.45l3.1-1.63C65.24,60.87,65.56,60.79,65.88,60.79z"/>
	</g>
	<g>
		<path d="M78.64,106.34c-0.38,0-0.76-0.11-1.09-0.32l-11.68-7.57l-11.71,7.52c-0.62,0.39-1.4,0.42-2.04,0.07
			c-0.64-0.35-1.04-1.02-1.04-1.75V81.82c0-1.1,0.9-2,2-2s2,0.9,2,2v18.81l9.72-6.24c0.66-0.43,1.51-0.42,2.17,0l9.68,6.27V82.38
			c0-1.1,0.9-2,2-2s2,0.9,2,2v21.96c0,0.73-0.4,1.41-1.04,1.76C79.3,106.26,78.97,106.34,78.64,106.34z"/>
	</g>
</g>
</svg>
