<?xml version="1.0" encoding="utf-8"?>
<!-- Generator: Adobe Illustrator 23.0.3, SVG Export Plug-In . SVG Version: 6.00 Build 0)  -->
<svg version="1.1" id="Layer_1" xmlns="http://www.w3.org/2000/svg" xmlns:xlink="http://www.w3.org/1999/xlink" x="0px" y="0px"
	 viewBox="0 0 131.8 131.8" style="enable-background:new 0 0 131.8 131.8;" xml:space="preserve">
<path d="M78.3,72.9c0.5,0.7,1,1.3,1.4,2c5.4,7.5,10.7,15,16.1,22.5c0.4,0.5,0.6,1,0.4,1.7c-0.1,0.4-0.3,0.8-0.7,1.1
	c-2.1,1.6-4.2,3.2-6.3,4.8c-0.7,0.5-1.5,0.5-2.3,0c-5.7-3.9-11.4-7.7-17.1-11.6c-3.6-2.4-7.2-4.9-10.8-7.3c-0.1-0.1-0.2-0.1-0.3-0.2
	c-0.1,0.5-0.1,0.9-0.2,1.3c-0.5,3.2-1,6.5-1.5,9.7c-0.2,1.6-0.5,3.3-0.7,4.9c-0.2,1-1,1.7-2,1.6c-1-0.1-2-0.3-3-0.4
	c-2.3-0.3-4.5-0.7-6.8-1c-2.5-0.4-5-0.7-7.5-1.1c-1.1-0.2-1.7-1.1-1.6-2.2c0.5-3.1,0.9-6.1,1.4-9.2c0.4-2.8,0.9-5.6,1.3-8.5
	c0.4-2.8,0.8-5.6,1.3-8.5c0.4-2.9,0.9-5.9,1.3-8.8c0.4-2.7,0.8-5.4,1.2-8.1c0.4-2.6,0.8-5.1,1.2-7.7c0.4-2.6,0.8-5.1,1.2-7.7
	c0.2-1.4,0.4-2.8,0.6-4.2c0.1-0.8,0.6-1.3,1.4-1.5c2.6-0.8,5.3-1.6,7.9-2.4c6.1-1.9,12.3-3.7,18.4-5.6c1-0.3,1.8,0,2.3,0.9
	c4.8,8,9.7,16,14.5,24c0.4,0.6,0.3,1.3,0.2,1.9c-0.3,2.4-0.6,4.9-0.8,7.3c-0.1,1-0.2,2-0.3,3c-0.1,0.6-0.3,1-0.7,1.3
	c-2.8,2.3-5.6,4.6-8.3,6.9C79,72.2,78.7,72.6,78.3,72.9z M62.8,33.4c-0.1,0-0.2,0.1-0.3,0.1c-2.9,0.9-5.9,1.8-8.8,2.7
	c-1.7,0.5-3.3,1-5,1.5c-0.1,0-0.3,0.1-0.3,0.2c-0.2,1-0.3,2-0.5,3c-0.4,2.6-0.8,5.1-1.2,7.7c-0.4,2.6-0.8,5.1-1.2,7.7
	c-0.4,2.6-0.8,5.2-1.2,7.8c-0.1,0.7-0.2,1.3-0.3,2c4.5,0.7,9,1.3,13.5,2C59.3,56.5,61.1,45,62.8,33.4z M91.9,98.3
	c-0.3-0.4-0.6-0.8-0.9-1.2C85.6,89.5,80.3,82,74.9,74.5c-0.1-0.1-0.2-0.2-0.4-0.3c-1.4-0.2-2.9-0.4-4.3-0.6
	c-2.5-0.4-5.1-0.7-7.6-1.1c-0.6-0.1-1.2-0.2-1.8-0.3c0,0.1,0,0.2-0.1,0.3c-0.4,3-0.9,6-1.3,8.9c0,0.2,0,0.4,0.2,0.5
	c6.6,4.4,13.1,8.9,19.7,13.3c2.8,1.9,5.7,3.8,8.5,5.7c0.2,0.1,0.3,0.1,0.5,0c0.2-0.2,0.5-0.4,0.8-0.6C90,99.7,90.9,99,91.9,98.3z
	 M52.9,99.5c1.4-9.3,2.8-18.5,4.2-27.8c-4.5-0.7-9-1.3-13.5-2c-1.4,9.3-2.8,18.5-4.2,27.8C43.9,98.2,48.4,98.8,52.9,99.5z
	 M85.4,51.9c-0.1-0.1-0.1-0.2-0.1-0.3c-2.1-3.5-4.2-6.9-6.3-10.4c-2.1-3.5-4.2-7-6.4-10.5c-0.1-0.1-0.1-0.3-0.4-0.2
	c-1.7,0.5-3.5,1.1-5.2,1.6c-0.1,0-0.2,0.1-0.2,0.2c-0.2,1.2-0.4,2.5-0.6,3.7c-0.4,2.8-0.8,5.6-1.3,8.5c0,0.2,0,0.4,0.2,0.5
	c4,3.8,8,7.5,11.9,11.3c0.1,0.1,0.3,0.3,0.4,0.4C80.1,55.1,82.7,53.5,85.4,51.9z M85.6,56c-7.1,4.3-14.1,8.7-21.1,13
	c0.2,0,0.3,0.1,0.4,0.1c3.3,0.5,6.7,1,10,1.5c0.2,0,0.3,0,0.5-0.1c3.1-2.5,6.1-5.1,9.2-7.6c0.2-0.1,0.2-0.3,0.2-0.5
	c0.1-1.1,0.2-2.2,0.4-3.3C85.4,58.1,85.5,57.1,85.6,56z M61.6,66.5c4.2-2.6,8.4-5.2,12.6-7.7c-3.3-3.2-6.7-6.3-10-9.5
	C63.3,55,62.5,60.7,61.6,66.5z"/>
</svg>
