<?xml version="1.0" encoding="utf-8"?>
<!-- Generator: Adobe Illustrator 23.0.3, SVG Export Plug-In . SVG Version: 6.00 Build 0)  -->
<svg version="1.1" id="Layer_1" xmlns="http://www.w3.org/2000/svg" xmlns:xlink="http://www.w3.org/1999/xlink" x="0px" y="0px"
	 viewBox="0 0 131.8 131.8" style="enable-background:new 0 0 131.8 131.8;" xml:space="preserve">
<g>
	<path d="M102,102.3H87.9V66.8c0.1,0,0.3,0,0.4,0c1.4,0,2.5-1.1,2.5-2.5s-1.1-2.5-2.5-2.5c-0.1,0-0.3,0-0.4,0V30.4c0-1.1-0.9-2-2-2
		h-42c-1.1,0-2,0.9-2,2v71.9H29.7c-2.6,0-2.6,4,0,4H102C104.6,106.3,104.6,102.3,102,102.3z M83.9,102.3h-38V32.4h38V102.3z"/>
	<g>
		<path d="M70.7,60.9c-0.7,0.6-1.7,0.6-2.4,0l-2-2v8.6c0,0.9-0.7,1.6-1.6,1.7h-0.1c-0.4,0-0.8-0.2-1.1-0.4c-0.3-0.3-0.5-0.7-0.6-1.2
			V59L61,60.9c-0.1,0.1-0.1,0.1-0.2,0.2c-0.7,0.6-1.8,0.5-2.4-0.2c-0.6-0.7-0.5-1.7,0.2-2.4l4.8-4.8c0.3-0.4,0.8-0.5,1.2-0.5
			s0.9,0.2,1.2,0.5l4.8,4.8l0,0C71.4,59.2,71.4,60.2,70.7,60.9z"/>
	</g>
	<g>
		<path d="M64.7,76.6c-8.5,0-15.4-6.9-15.4-15.4s6.9-15.4,15.4-15.4s15.4,6.9,15.4,15.4C80,69.7,73.1,76.6,64.7,76.6z M64.7,49.3
			c-6.6,0-11.9,5.3-11.9,11.9s5.3,11.9,11.9,11.9s11.9-5.3,11.9-11.9S71.2,49.3,64.7,49.3z"/>
	</g>
</g>
</svg>
